<?xml version="1.0" encoding="us-ascii" standalone="no"?><svg xmlns="http://www.w3.org/2000/svg" xmlns:xlink="http://www.w3.org/1999/xlink" contentStyleType="text/css" height="375px" preserveAspectRatio="none" style="width:1039px;height:375px;background:#FFFFFF;" version="1.1" viewBox="0 0 1039 375" width="1039px" zoomAndPan="magnify"><defs/><g><rect fill="#FFFFFF" height="256.7109" style="stroke:#181818;stroke-width:1.0;" width="10" x="109" y="66.1641"/><rect fill="#FFFFFF" height="199.6641" style="stroke:#181818;stroke-width:1.0;" width="10" x="355" y="94.6875"/><rect fill="#FFFFFF" height="142.6172" style="stroke:#181818;stroke-width:1.0;" width="10" x="582" y="123.2109"/><rect fill="#FFFFFF" height="28.5234" style="stroke:#181818;stroke-width:1.0;" width="10" x="812" y="151.7344"/><rect fill="#FFFFFF" height="28.5234" style="stroke:#181818;stroke-width:1.0;" width="10" x="901.5" y="208.7813"/><line style="stroke:#181818;stroke-width:0.5;stroke-dasharray:5.0,5.0;" x1="113.5" x2="113.5" y1="35.6406" y2="340.875"/><line style="stroke:#181818;stroke-width:0.5;stroke-dasharray:5.0,5.0;" x1="359.5" x2="359.5" y1="35.6406" y2="340.875"/><line style="stroke:#181818;stroke-width:0.5;stroke-dasharray:5.0,5.0;" x1="587" x2="587" y1="35.6406" y2="340.875"/><line style="stroke:#181818;stroke-width:0.5;stroke-dasharray:5.0,5.0;" x1="816.5" x2="816.5" y1="35.6406" y2="340.875"/><line style="stroke:#181818;stroke-width:0.5;stroke-dasharray:5.0,5.0;" x1="906.5" x2="906.5" y1="35.6406" y2="340.875"/><line style="stroke:#181818;stroke-width:0.5;stroke-dasharray:5.0,5.0;" x1="993.5" x2="993.5" y1="35.6406" y2="340.875"/><rect fill="#E2E2F0" height="29.6406" rx="2.5" ry="2.5" style="stroke:#181818;stroke-width:0.5;" width="87" x="70.5" y="5"/><text fill="#000000" font-family="sans-serif" font-size="14" lengthAdjust="spacing" textLength="73" x="77.5" y="24.6738">:TaskRoute</text><rect fill="#E2E2F0" height="29.6406" rx="2.5" ry="2.5" style="stroke:#181818;stroke-width:0.5;" width="87" x="70.5" y="339.875"/><text fill="#000000" font-family="sans-serif" font-size="14" lengthAdjust="spacing" textLength="73" x="77.5" y="359.5488">:TaskRoute</text><rect fill="#E2E2F0" height="29.6406" rx="2.5" ry="2.5" style="stroke:#181818;stroke-width:0.5;" width="133" x="293.5" y="5"/><text fill="#000000" font-family="sans-serif" font-size="14" lengthAdjust="spacing" textLength="119" x="300.5" y="24.6738">:ListTaskController</text><rect fill="#E2E2F0" height="29.6406" rx="2.5" ry="2.5" style="stroke:#181818;stroke-width:0.5;" width="133" x="293.5" y="339.875"/><text fill="#000000" font-family="sans-serif" font-size="14" lengthAdjust="spacing" textLength="119" x="300.5" y="359.5488">:ListTaskController</text><rect fill="#E2E2F0" height="29.6406" rx="2.5" ry="2.5" style="stroke:#181818;stroke-width:0.5;" width="118" x="528" y="5"/><text fill="#000000" font-family="sans-serif" font-size="14" lengthAdjust="spacing" textLength="104" x="535" y="24.6738">:ListTaskService</text><rect fill="#E2E2F0" height="29.6406" rx="2.5" ry="2.5" style="stroke:#181818;stroke-width:0.5;" width="118" x="528" y="339.875"/><text fill="#000000" font-family="sans-serif" font-size="14" lengthAdjust="spacing" textLength="104" x="535" y="359.5488">:ListTaskService</text><rect fill="#E2E2F0" height="29.6406" rx="2.5" ry="2.5" style="stroke:#181818;stroke-width:0.5;" width="83" x="775.5" y="5"/><text fill="#000000" font-family="sans-serif" font-size="14" lengthAdjust="spacing" textLength="69" x="782.5" y="24.6738">:TaskRepo</text><rect fill="#E2E2F0" height="29.6406" rx="2.5" ry="2.5" style="stroke:#181818;stroke-width:0.5;" width="83" x="775.5" y="339.875"/><text fill="#000000" font-family="sans-serif" font-size="14" lengthAdjust="spacing" textLength="69" x="782.5" y="359.5488">:TaskRepo</text><rect fill="#E2E2F0" height="29.6406" rx="2.5" ry="2.5" style="stroke:#181818;stroke-width:0.5;" width="76" x="868.5" y="5"/><text fill="#000000" font-family="sans-serif" font-size="14" lengthAdjust="spacing" textLength="62" x="875.5" y="24.6738">:TaskMap</text><rect fill="#E2E2F0" height="29.6406" rx="2.5" ry="2.5" style="stroke:#181818;stroke-width:0.5;" width="76" x="868.5" y="339.875"/><text fill="#000000" font-family="sans-serif" font-size="14" lengthAdjust="spacing" textLength="62" x="875.5" y="359.5488">:TaskMap</text><rect fill="#E2E2F0" height="29.6406" rx="2.5" ry="2.5" style="stroke:#181818;stroke-width:0.5;" width="79" x="954.5" y="5"/><text fill="#000000" font-family="sans-serif" font-size="14" lengthAdjust="spacing" textLength="65" x="961.5" y="24.6738">:TaskDTO</text><rect fill="#E2E2F0" height="29.6406" rx="2.5" ry="2.5" style="stroke:#181818;stroke-width:0.5;" width="79" x="954.5" y="339.875"/><text fill="#000000" font-family="sans-serif" font-size="14" lengthAdjust="spacing" textLength="65" x="961.5" y="359.5488">:TaskDTO</text><rect fill="#FFFFFF" height="256.7109" style="stroke:#181818;stroke-width:1.0;" width="10" x="109" y="66.1641"/><rect fill="#FFFFFF" height="199.6641" style="stroke:#181818;stroke-width:1.0;" width="10" x="355" y="94.6875"/><rect fill="#FFFFFF" height="142.6172" style="stroke:#181818;stroke-width:1.0;" width="10" x="582" y="123.2109"/><rect fill="#FFFFFF" height="28.5234" style="stroke:#181818;stroke-width:1.0;" width="10" x="812" y="151.7344"/><rect fill="#FFFFFF" height="28.5234" style="stroke:#181818;stroke-width:1.0;" width="10" x="901.5" y="208.7813"/><ellipse cx="49.5" cy="65.4141" fill="none" rx="4" ry="4" style="stroke:#181818;stroke-width:1.5;"/><polygon fill="#181818" points="97,62.1641,107,66.1641,97,70.1641,101,66.1641" style="stroke:#181818;stroke-width:1.0;"/><line style="stroke:#181818;stroke-width:1.0;" x1="54" x2="103" y1="66.1641" y2="66.1641"/><text fill="#000000" font-family="sans-serif" font-size="13" font-weight="bold" lengthAdjust="spacing" textLength="7" x="57" y="61.4092">1</text><text fill="#000000" font-family="sans-serif" font-size="13" lengthAdjust="spacing" textLength="26" x="68" y="61.4092">GET</text><polygon fill="#181818" points="343,90.6875,353,94.6875,343,98.6875,347,94.6875" style="stroke:#181818;stroke-width:1.0;"/><line style="stroke:#181818;stroke-width:1.0;" x1="119" x2="349" y1="94.6875" y2="94.6875"/><text fill="#000000" font-family="sans-serif" font-size="13" font-weight="bold" lengthAdjust="spacing" textLength="7" x="126" y="89.9326">2</text><text fill="#000000" font-family="sans-serif" font-size="13" lengthAdjust="spacing" textLength="206" x="137" y="89.9326">listTaskByParameter(req, res, next)</text><polygon fill="#181818" points="570,119.2109,580,123.2109,570,127.2109,574,123.2109" style="stroke:#181818;stroke-width:1.0;"/><line style="stroke:#181818;stroke-width:1.0;" x1="365" x2="576" y1="123.2109" y2="123.2109"/><text fill="#000000" font-family="sans-serif" font-size="13" font-weight="bold" lengthAdjust="spacing" textLength="7" x="372" y="118.4561">3</text><text fill="#000000" font-family="sans-serif" font-size="13" lengthAdjust="spacing" textLength="187" x="383" y="118.4561">listTaskByParameter(parameter)</text><polygon fill="#181818" points="800,147.7344,810,151.7344,800,155.7344,804,151.7344" style="stroke:#181818;stroke-width:1.0;"/><line style="stroke:#181818;stroke-width:1.0;" x1="592" x2="806" y1="151.7344" y2="151.7344"/><text fill="#000000" font-family="sans-serif" font-size="13" font-weight="bold" lengthAdjust="spacing" textLength="7" x="599" y="146.9795">4</text><text fill="#000000" font-family="sans-serif" font-size="13" lengthAdjust="spacing" textLength="190" x="610" y="146.9795">findTaskByParameter(parameter)</text><polygon fill="#181818" points="603,176.2578,593,180.2578,603,184.2578,599,180.2578" style="stroke:#181818;stroke-width:1.0;"/><line style="stroke:#181818;stroke-width:1.0;stroke-dasharray:2.0,2.0;" x1="597" x2="816" y1="180.2578" y2="180.2578"/><text fill="#000000" font-family="sans-serif" font-size="13" font-weight="bold" lengthAdjust="spacing" textLength="7" x="609" y="175.5029">5</text><text fill="#000000" font-family="sans-serif" font-size="13" lengthAdjust="spacing" textLength="46" x="620" y="175.5029">taskList</text><polygon fill="#181818" points="889.5,204.7813,899.5,208.7813,889.5,212.7813,893.5,208.7813" style="stroke:#181818;stroke-width:1.0;"/><line style="stroke:#181818;stroke-width:1.0;" x1="592" x2="895.5" y1="208.7813" y2="208.7813"/><text fill="#000000" font-family="sans-serif" font-size="13" font-weight="bold" lengthAdjust="spacing" textLength="7" x="599" y="204.0264">6</text><text fill="#000000" font-family="sans-serif" font-size="13" lengthAdjust="spacing" textLength="91" x="610" y="204.0264">toDTO(taskList)</text><polygon fill="#181818" points="982,233.3047,992,237.3047,982,241.3047,986,237.3047" style="stroke:#181818;stroke-width:1.0;"/><line style="stroke:#181818;stroke-width:1.0;" x1="906.5" x2="988" y1="237.3047" y2="237.3047"/><text fill="#000000" font-family="sans-serif" font-size="13" font-weight="bold" lengthAdjust="spacing" textLength="7" x="913.5" y="232.5498">7</text><text fill="#000000" font-family="sans-serif" font-size="13" lengthAdjust="spacing" textLength="44" x="924.5" y="232.5498">create()</text><polygon fill="#181818" points="376,261.8281,366,265.8281,376,269.8281,372,265.8281" style="stroke:#181818;stroke-width:1.0;"/><line style="stroke:#181818;stroke-width:1.0;stroke-dasharray:2.0,2.0;" x1="370" x2="586" y1="265.8281" y2="265.8281"/><text fill="#000000" font-family="sans-serif" font-size="13" font-weight="bold" lengthAdjust="spacing" textLength="7" x="382" y="261.0732">8</text><text fill="#000000" font-family="sans-serif" font-size="13" lengthAdjust="spacing" textLength="72" x="393" y="261.0732">taskListDTO</text><polygon fill="#181818" points="130,290.3516,120,294.3516,130,298.3516,126,294.3516" style="stroke:#181818;stroke-width:1.0;"/><line style="stroke:#181818;stroke-width:1.0;stroke-dasharray:2.0,2.0;" x1="124" x2="359" y1="294.3516" y2="294.3516"/><text fill="#000000" font-family="sans-serif" font-size="13" font-weight="bold" lengthAdjust="spacing" textLength="7" x="136" y="289.5967">9</text><text fill="#000000" font-family="sans-serif" font-size="13" lengthAdjust="spacing" textLength="72" x="147" y="289.5967">taskListDTO</text><polygon fill="#181818" points="11,318.875,1,322.875,11,326.875,7,322.875" style="stroke:#181818;stroke-width:1.0;"/><line style="stroke:#181818;stroke-width:1.0;stroke-dasharray:2.0,2.0;" x1="5" x2="113" y1="322.875" y2="322.875"/><text fill="#000000" font-family="sans-serif" font-size="13" font-weight="bold" lengthAdjust="spacing" textLength="14" x="17" y="318.1201">10</text><text fill="#000000" font-family="sans-serif" font-size="13" lengthAdjust="spacing" textLength="72" x="35" y="318.1201">taskListDTO</text><!--SRC=[ZP7TJiCm38Nl_HJHhZffUO483OdV6n08-WAXCr94bmJNdU3jYKDAmzGXBYexzUUJ-DYE7FouVq42Y9ROTIvQpsfbMZkyFOMHSQNie6xw4EY8k7C32tKPF5FeUwICpiSJ_3FImNNVkYLVkXjZo8Wa2_Lx6tCvnONgLVkGgoa2d0UzpGCOTNlTWktO7InZ6GfoK7fRlToelZpsulFHajqZ8pM4xnj5E6oKnmzUpqBLo33d8bdcMzQBKrP9JOP0IKH4733grVdTVnIoNm0IbAwVmAbPTW0x_0rNLoKt4nYIRSs4LzBYTVe4J8Jf2DFVPbqB2Z8B7fawISfMgfwVcMllKclPsOckslGphV-6owg_0000]--></g></svg>