<?xml version="1.0" encoding="us-ascii" standalone="no"?><svg xmlns="http://www.w3.org/2000/svg" xmlns:xlink="http://www.w3.org/1999/xlink" contentStyleType="text/css" height="98px" preserveAspectRatio="none" style="width:259px;height:98px;background:#FFFFFF;" version="1.1" viewBox="0 0 259 98" width="259px" zoomAndPan="magnify"><defs/><g><!--cluster RobDroneGo--><g id="cluster_RobDroneGo"><path d="M108,6 L200,6 A3.75,3.75 0 0 1 202.5,8.5 L209.5,27.6406 L250,27.6406 A2.5,2.5 0 0 1 252.5,30.1406 L252.5,81.5 A2.5,2.5 0 0 1 250,84 L108,84 A2.5,2.5 0 0 1 105.5,81.5 L105.5,8.5 A2.5,2.5 0 0 1 108,6 " fill="none" style="stroke:#000000;stroke-width:1.5;"/><line style="stroke:#000000;stroke-width:1.5;" x1="105.5" x2="209.5" y1="27.6406" y2="27.6406"/><text fill="#000000" font-family="sans-serif" font-size="14" font-weight="bold" lengthAdjust="spacing" textLength="91" x="109.5" y="20.6738">RobDroneGo</text></g><g id="elem_UC18"><ellipse cx="178.8373" cy="54.1825" fill="#F1F1F1" rx="57.3373" ry="14.1825" style="stroke:#181818;stroke-width:0.5;"/><text fill="#000000" font-family="sans-serif" font-size="14" lengthAdjust="spacing" textLength="64" x="143.8373" y="57.7694">List Tasks</text></g><!--entity FM--><g id="elem_FM"><ellipse cx="33" cy="32" fill="#F1F1F1" rx="16" ry="16" style="stroke:#181818;stroke-width:1.5;"/><path d="M33,52 C37,52 40,52 44,48 C52,48 60,56 60,64 L60,68 C60,72 56,76 52,76 L14,76 C10,76 6,72 6,68 L6,64 C6,56 14,48 22,48 C26,52 29,52 33,52 " fill="#F1F1F1" style="stroke:#181818;stroke-width:1.5;"/><text fill="#000000" font-family="sans-serif" font-size="14" lengthAdjust="spacing" textLength="45" x="8.5" y="90.1738">UI User</text></g><!--link FM to UC18--><g id="link_FM_UC18"><path d="M61.76,54 C77.23,54 97.14,54 116.09,54 " fill="none" id="FM-to-UC18" style="stroke:#181818;stroke-width:1.0;"/><polygon fill="#181818" points="121.41,54,112.41,50,116.41,54,112.41,58,121.41,54" style="stroke:#181818;stroke-width:1.0;"/></g><!--SRC=[9Okn2i9040Nx_Of7-XHsLZPAH32DyJvWFTTuN98DjoiYuhyhiPiPc45k3bUKrDyTrrGaUjA9o7AQPYuyWgDhwVmr2FWffgCGBGrLE22O_01iQ5eYcZbcxWKuwMLNT9Az0cyYu64IsGJLCPdZp9PjsS9sjIRw43Kjwdhpzoy0]--></g></svg>